<svg width="74" height="69" viewBox="0 0 74 69" fill="none" xmlns="http://www.w3.org/2000/svg">
<path opacity="0.8" d="M8.64066 46.3769V66.242C8.64066 67.4649 9.67561 67.9725 9.99759 68.0878C10.3196 68.2262 11.4005 68.5262 12.3664 67.6264L27.3944 53.1845C28.6742 51.9548 29.9093 50.6621 30.8375 49.1496C31.2744 48.4386 31.4555 48.0381 31.4555 48.0381C32.3755 46.1692 32.3755 44.3696 31.4782 42.5699C30.1448 39.8936 26.7407 37.171 21.6118 34.5869L12.8494 39.4783C10.2506 40.9549 8.64066 43.5621 8.64066 46.3769Z" fill="white"/>
<path d="M0 2.19334V23.0276C0 25.6347 1.74794 27.9419 4.23184 28.6802C12.6954 31.1259 27.4375 36.3863 31.0024 44.1156C31.462 45.1307 31.7381 46.1229 31.8307 47.1611C34.1994 42.8466 35.2803 37.886 34.7744 32.8563C34.0841 25.727 30.3122 19.2437 24.4248 15.1138L3.42686 0.41677C3.05883 0.139903 2.62187 0.00146484 2.1849 0.00146484C1.81688 0.00146484 1.4949 0.0706839 1.14994 0.255262C0.459945 0.64749 0 1.36274 0 2.19334Z" fill="white"/>
<path opacity="0.8" d="M64.5352 46.3769V66.242C64.5352 67.4649 63.5006 67.9725 63.1782 68.0878C62.8567 68.2262 61.775 68.5262 60.8095 67.6264L45.4317 52.8487C44.3849 51.8425 43.3853 50.7785 42.5968 49.5592C41.9723 48.5942 41.7206 48.0381 41.7206 48.0381C40.8005 46.1692 40.8005 44.3696 41.697 42.5699C43.0312 39.8936 46.4354 37.171 51.5635 34.5869L60.3263 39.4783C62.9484 40.9549 64.5352 43.5621 64.5352 46.3769Z" fill="white"/>
<path d="M73.19 2.19187V23.0261C73.19 25.6332 71.4416 27.9404 68.9576 28.6787C60.4944 31.1244 45.7524 36.3849 42.1875 44.1141C41.7271 45.1293 41.451 46.1214 41.3592 47.1597C38.9905 42.8452 37.9096 37.8846 38.4155 32.8549C39.1049 25.7255 42.8769 19.2423 48.7651 15.1123L69.7631 0.415298C70.131 0.13843 70.5679 0 71.0047 0C71.3726 0 71.695 0.0692187 72.0393 0.253797C72.7295 0.646025 73.19 1.36127 73.19 2.19187Z" fill="white"/>
</svg>
