<svg width="224" height="213" viewBox="0 0 224 213" fill="none" xmlns="http://www.w3.org/2000/svg">
<path d="M87.6376 154.782L140.287 72.2258C142.726 68.3801 146.988 66.0502 151.529 66.0502C158.903 66.0502 164.874 72.0293 164.874 79.4118V213L212.618 193.435C219.514 190.6 224 183.891 224 176.452V79.8049C224 69.6714 215.786 61.4467 205.665 61.4467H151.529C145.39 61.4467 139.671 64.5906 136.362 69.7555L83.7127 152.311C81.2736 156.157 77.0123 158.487 72.4706 158.487C65.0974 158.487 59.1259 152.508 59.1259 145.125V0L11.3822 19.5652C4.4856 22.4004 0 29.1093 0 36.548V144.732C0 154.866 8.21429 163.09 18.3349 163.09H72.4706C78.6103 163.09 84.3294 159.947 87.6376 154.782Z" fill="white"/>
</svg>
