<svg width="74" height="69" viewBox="0 0 74 69" fill="none" xmlns="http://www.w3.org/2000/svg">
<path d="M8.64066 46.6258V66.4909C8.64066 67.7138 9.67561 68.2214 9.99759 68.3367C10.3196 68.4752 11.4005 68.7751 12.3664 67.8753L27.3944 53.4334C28.6742 52.2037 29.9093 50.911 30.8375 49.3985C31.2744 48.6875 31.4555 48.287 31.4555 48.287C32.3755 46.4181 32.3755 44.6185 31.4782 42.8188C30.1448 40.1425 26.7407 37.4199 21.6118 34.8358L12.8494 39.7272C10.2506 41.2038 8.64066 43.811 8.64066 46.6258Z" fill="#00378A"/>
<path d="M0 2.44224V23.2765C0 25.8836 1.74794 28.1908 4.23184 28.9291C12.6954 31.3748 27.4375 36.6352 31.0024 44.3645C31.462 45.3796 31.7381 46.3718 31.8307 47.41C34.1994 43.0955 35.2803 38.1349 34.7744 33.1052C34.0841 25.9759 30.3122 19.4926 24.4248 15.3627L3.42686 0.665672C3.05883 0.388804 2.62187 0.250366 2.1849 0.250366C1.81688 0.250366 1.4949 0.319585 1.14994 0.504164C0.459945 0.896391 0 1.61164 0 2.44224Z" fill="#2E4DFF"/>
<path d="M64.5352 46.6258V66.4909C64.5352 67.7138 63.5006 68.2214 63.1782 68.3367C62.8567 68.4752 61.775 68.7751 60.8095 67.8753L45.4317 53.0976C44.3849 52.0914 43.3853 51.0274 42.5968 49.8081C41.9723 48.8431 41.7206 48.287 41.7206 48.287C40.8005 46.4181 40.8005 44.6185 41.697 42.8188C43.0312 40.1425 46.4354 37.4199 51.5635 34.8358L60.3263 39.7272C62.9484 41.2038 64.5352 43.811 64.5352 46.6258Z" fill="#00378A"/>
<path d="M73.19 2.44077V23.275C73.19 25.8821 71.4416 28.1893 68.9576 28.9277C60.4944 31.3733 45.7524 36.6338 42.1875 44.363C41.7271 45.3782 41.451 46.3703 41.3592 47.4086C38.9905 43.0941 37.9096 38.1335 38.4155 33.1038C39.1049 25.9744 42.8769 19.4912 48.7651 15.3612L69.7631 0.664199C70.131 0.387331 70.5679 0.248901 71.0047 0.248901C71.3726 0.248901 71.695 0.31812 72.0393 0.502699C72.7295 0.894926 73.19 1.61017 73.19 2.44077Z" fill="#2E4DFF"/>
</svg>
