<svg width="1217" height="283" viewBox="0 0 1217 283" fill="none" xmlns="http://www.w3.org/2000/svg">
<path fill-rule="evenodd" clip-rule="evenodd" d="M468.336 31.748H4H0V35.748V278.606V282.606H4H1212.99H1216.99V278.606V35.748V31.748H1212.99H759.856V35.748H1212.99V278.606H4V35.748H468.336V31.748Z" fill="white"/>
<path d="M519.592 19.8738H531.413C541.522 19.8738 548.511 26.5951 548.511 35.6211C548.511 44.647 541.514 51.4573 531.413 51.4573H519.592V19.8738ZM529.027 45.6845H531.42C538.009 45.6845 542.115 41.5346 542.115 35.6211C542.115 29.7149 538.009 25.654 531.42 25.654H525.914V51.146L529.027 45.6845Z" fill="white"/>
<path d="M561.823 19.8794H582.485V25.6522H568.137V37.7461L571.205 32.3735H581.811V38.0573H568.137V45.6827H582.707V51.4555H561.815V19.8794H561.823Z" fill="white"/>
<path d="M596.013 19.8794H602.327V51.1442L605.44 45.6827H616.675V51.4555H596.013V19.8794Z" fill="white"/>
<path d="M629.979 19.8738H636.657L644.958 43.3354L652.947 19.8738H659.624L651.457 43.8319H645.091L647.796 51.4573H641.119L629.979 19.8738Z" fill="white"/>
<path d="M672.929 0V14.1913C684.795 14.1913 694.408 23.8029 694.408 35.6673C694.408 47.5317 684.795 57.1433 672.929 57.1433V71.3347C692.629 71.3347 708.6 55.3648 708.6 35.6673C708.6 15.9699 692.629 0 672.929 0Z" fill="white"/>
<path d="M152.774 181.678L181.882 134.025C183.23 131.913 185.587 130.634 188.096 130.634C192.17 130.634 195.471 133.916 195.471 137.97V218.403L221.868 207.66C225.681 206.103 228.161 202.42 228.161 198.335V138.186C228.161 132.622 223.62 128.106 218.026 128.106H188.096C184.701 128.106 181.537 129.832 179.712 132.668L150.604 180.321C149.256 182.433 146.899 183.712 144.39 183.712C140.311 183.712 137.01 180.429 137.01 176.376V95.9424L110.618 106.686C106.804 108.242 104.325 111.926 104.325 116.011V176.16C104.325 181.724 108.866 186.24 114.46 186.24H144.39C147.785 186.24 150.944 184.514 152.774 181.678Z" fill="white"/>
<path d="M289 190.359V127.208H347.151V138.873H300.665V152.907H338.029V164.66H300.665V190.359H289Z" fill="white"/>
<path d="M355.368 190.359V127.208H366.857V190.359H355.368Z" fill="white"/>
<path d="M378.862 190.359V187.114L402.631 158.783L378.862 130.453V127.208H391.403L410.346 149.662L429.117 127.208H441.747V130.453L417.894 158.783L441.747 187.026V190.359H429.117L410.263 167.993L391.403 190.359H378.862Z" fill="white"/>
<path d="M455.479 190.359V127.208H513.631V138.873H467.145V152.907H504.509V164.66H467.145V178.694H513.631V190.359H455.479Z" fill="white"/>
<path d="M527.014 190.359V127.208H577.889C580.108 127.208 582.155 127.763 584.03 128.874C585.899 129.985 587.39 131.477 588.502 133.347C589.614 135.16 590.165 137.178 590.165 139.4V178.167C590.165 180.389 589.614 182.436 588.502 184.307C587.39 186.12 585.899 187.582 584.03 188.693C582.155 189.804 580.108 190.359 577.889 190.359H527.014ZM539.561 178.694H577.363C577.653 178.694 577.919 178.606 578.15 178.43C578.386 178.196 578.504 177.934 578.504 177.641V139.925C578.504 139.633 578.386 139.4 578.15 139.224C577.919 138.99 577.653 138.873 577.363 138.873H539.561C539.266 138.873 539.005 138.99 538.769 139.224C538.592 139.4 538.508 139.633 538.508 139.925V177.641C538.508 177.934 538.592 178.196 538.769 178.43C539.005 178.606 539.266 178.694 539.561 178.694Z" fill="white"/>
<path d="M635.834 190.359V127.208H684.249C686.473 127.208 688.49 127.763 690.301 128.874C692.17 129.985 693.661 131.477 694.773 133.347C695.885 135.16 696.441 137.178 696.441 139.4V151.766C696.441 152.527 696.382 153.258 696.264 153.959C696.146 154.661 695.944 155.334 695.649 155.977C696.648 157.321 697.435 158.725 698.02 160.187C698.665 161.649 698.985 163.11 698.985 164.572V178.167C698.985 180.389 698.429 182.436 697.317 184.307C696.205 186.12 694.714 187.582 692.844 188.693C690.975 189.804 688.928 190.359 686.704 190.359H635.834ZM648.464 178.694H686.177C686.473 178.694 686.733 178.606 686.97 178.43C687.201 178.196 687.319 177.934 687.319 177.641V165.098C687.319 164.806 687.201 164.572 686.97 164.397C686.733 164.163 686.473 164.046 686.177 164.046H648.464C648.169 164.046 647.908 164.163 647.672 164.397C647.5 164.572 647.411 164.806 647.411 165.098V177.641C647.411 177.934 647.5 178.196 647.672 178.43C647.908 178.606 648.169 178.694 648.464 178.694ZM648.464 152.38H683.722C684.013 152.38 684.249 152.293 684.426 152.117C684.598 151.884 684.687 151.62 684.687 151.328V139.925C684.687 139.633 684.598 139.4 684.426 139.224C684.249 138.99 684.013 138.873 683.722 138.873H648.464C648.169 138.873 647.908 138.99 647.672 139.224C647.5 139.4 647.411 139.633 647.411 139.925V151.328C647.411 151.62 647.5 151.884 647.672 152.117C647.908 152.293 648.169 152.38 648.464 152.38Z" fill="white"/>
<path d="M724.949 190.359C722.725 190.359 720.683 189.804 718.808 188.693C716.997 187.582 715.536 186.12 714.424 184.307C713.312 182.436 712.756 180.389 712.756 178.167V139.4C712.756 137.178 713.312 135.16 714.424 133.347C715.536 131.477 716.997 129.985 718.808 128.874C720.683 127.763 722.725 127.208 724.949 127.208H763.715C765.939 127.208 767.956 127.763 769.767 128.874C771.641 129.985 773.132 131.477 774.244 133.347C775.351 135.16 775.907 137.178 775.907 139.4V178.167C775.907 180.389 775.351 182.436 774.244 184.307C773.132 186.12 771.641 187.582 769.767 188.693C767.956 189.804 765.939 190.359 763.715 190.359H724.949ZM725.386 178.694H763.105C763.395 178.694 763.661 178.606 763.892 178.43C764.128 178.196 764.241 177.934 764.241 177.641V139.925C764.241 139.633 764.128 139.4 763.892 139.224C763.661 138.99 763.395 138.873 763.105 138.873H725.386C725.096 138.873 724.83 138.99 724.599 139.224C724.422 139.4 724.334 139.633 724.334 139.925V177.641C724.334 177.934 724.422 178.196 724.599 178.43C724.83 178.606 725.096 178.694 725.386 178.694Z" fill="white"/>
<path d="M840.298 190.359L821.266 167.642H836.44L852.928 187.114V190.359H840.298ZM789.954 190.359V127.296H840.824C843.048 127.296 845.095 127.851 846.964 128.962C848.834 130.073 850.325 131.564 851.437 133.436C852.549 135.248 853.105 137.265 853.105 139.487V156.503C853.105 158.725 852.549 160.772 851.437 162.643C850.325 164.514 848.834 166.005 846.964 167.116C845.095 168.169 843.048 168.695 840.824 168.695L801.531 168.783V190.359H789.954ZM802.584 157.029H840.298C840.593 157.029 840.853 156.942 841.09 156.766C841.321 156.591 841.439 156.357 841.439 156.065V139.926C841.439 139.634 841.321 139.4 841.09 139.224C840.853 138.99 840.593 138.873 840.298 138.873H802.584C802.289 138.873 802.028 138.99 801.792 139.224C801.62 139.4 801.531 139.634 801.531 139.926V156.065C801.531 156.357 801.62 156.591 801.792 156.766C802.028 156.942 802.289 157.029 802.584 157.029Z" fill="white"/>
<path d="M917.063 190.359L898.032 167.642H913.206L929.693 187.114V190.359H917.063ZM866.715 190.359V127.296H917.59C919.809 127.296 921.856 127.851 923.73 128.962C925.6 130.073 927.091 131.564 928.203 133.436C929.315 135.248 929.871 137.265 929.871 139.487V156.503C929.871 158.725 929.315 160.772 928.203 162.643C927.091 164.514 925.6 166.005 923.73 167.116C921.856 168.169 919.809 168.695 917.59 168.695L878.297 168.783V190.359H866.715ZM879.345 157.029H917.063C917.354 157.029 917.619 156.942 917.851 156.766C918.087 156.591 918.205 156.357 918.205 156.065V139.926C918.205 139.634 918.087 139.4 917.851 139.224C917.619 138.99 917.354 138.873 917.063 138.873H879.345C879.055 138.873 878.794 138.99 878.558 139.224C878.381 139.4 878.297 139.634 878.297 139.926V156.065C878.297 156.357 878.381 156.591 878.558 156.766C878.794 156.942 879.055 157.029 879.345 157.029Z" fill="white"/>
<path d="M955.494 190.359C953.275 190.359 951.228 189.804 949.359 188.693C947.543 187.582 946.082 186.12 944.97 184.307C943.858 182.436 943.302 180.389 943.302 178.167V139.4C943.302 137.178 943.858 135.16 944.97 133.347C946.082 131.477 947.543 129.985 949.359 128.874C951.228 127.763 953.275 127.208 955.494 127.208H994.265C996.484 127.208 998.502 127.763 1000.32 128.874C1002.19 129.985 1003.68 131.477 1004.79 133.347C1005.9 135.16 1006.46 137.178 1006.46 139.4V178.167C1006.46 180.389 1005.9 182.436 1004.79 184.307C1003.68 186.12 1002.19 187.582 1000.32 188.693C998.502 189.804 996.484 190.359 994.265 190.359H955.494ZM955.932 178.694H993.65C993.941 178.694 994.206 178.606 994.438 178.43C994.674 178.196 994.792 177.934 994.792 177.641V139.925C994.792 139.633 994.674 139.4 994.438 139.224C994.206 138.99 993.941 138.873 993.65 138.873H955.932C955.642 138.873 955.381 138.99 955.145 139.224C954.968 139.4 954.884 139.633 954.884 139.925V177.641C954.884 177.934 954.968 178.196 955.145 178.43C955.381 178.606 955.642 178.694 955.932 178.694Z" fill="white"/>
<path d="M1038.72 190.359L1015.75 127.208H1028.02L1043.29 168.87L1058.55 127.208H1069.86L1085.13 168.87L1100.3 127.208H1112.67L1089.69 190.359H1080.57L1064.16 145.627L1047.85 190.359H1038.72Z" fill="white"/>
</svg>
